<?xml version="1.0" encoding="utf-8"?>
<!-- Generator: Adobe Illustrator 18.1.0, SVG Export Plug-In . SVG Version: 6.00 Build 0)  -->
<svg version="1.1" id="Layer_1" xmlns="http://www.w3.org/2000/svg" xmlns:xlink="http://www.w3.org/1999/xlink" x="0px" y="0px"
	 viewBox="0 0 74.8 119.5" enable-background="new 0 0 74.8 119.5" xml:space="preserve">
<g id="WwWhTx_2_" opacity="0.57">
	<g>
		<path fill="#1A84C7" d="M17.5,87.2c7.7,5.1,15.7,9.6,23.6,14.4c2.2,1.3,4.3,2.7,6.5,4c-0.2,0.3-0.5,0.6-0.7,1
			c-1.4-0.5-2.8-1-4.2-1.6c-0.2,0.3-0.3,0.7-0.5,1c4,2.3,8,4.7,12.1,7c-0.3,0.5-0.6,1-0.8,1.5c-13.7-5.3-25.7-14.2-39.4-19.6
			c5,4.1,10.1,7.9,15.6,11.2c5.4,3.4,11.1,6.3,16.7,9.5c-0.3,0.5-0.6,1.1-0.9,1.6c-7.6-3.9-15.5-7.3-22.7-11.8
			C3.3,93.1-1.7,79.7,4.5,57.8c0.4-1.4,0.9-3,1.9-4c4.5-4.7,9-9.5,14-13.8c9.7-8.4,19.6-16.5,29.3-24.6c-4.9-1.9-12.1-0.7-16.3-6.9
			c7.8,0.6,15.1,4,22.9,4.1c0-0.4,0.1-0.8,0.1-1.2c-1.5-0.3-3-0.6-4.6-0.9c0.1-0.4,0.1-0.8,0.2-1.2c3.3-0.2,6.7-0.4,10-0.5
			c-4.8-1.3-9.5-2.2-14.3-2.5C42.8,6,37.9,6.2,32.3,6.2c5.1-5.8,38.5-2,42.5,4c-1.5-0.3-3-0.7-5.9-1.3c1.8,3.1,2.8,5,3.7,6.6
			c-1.8,2.3-3.7,4.3-4.9,6.7c-3.4,6.4-6.5,13-9.8,19.5c-2.3,4.4-4.8,8.6-7.2,12.9c-0.5-0.2-0.9-0.4-1.4-0.7c2.4-7.5,4.7-15,7.1-22.6
			c-2.2,2.6-4.4,5-6.5,7.5c1.3-8.2,7.8-12.9,12-19.4c-6.9,3.7-13.5,8-20.2,12c-14.2,8.5-23.1,20.9-28.5,36.4
			c-1.2,3.5-1.2,6.3,1.9,8.7c0.3,0.2,0.3,0.8,0.6,1.5c-1.1,0.4-2.1,0.8-4.2,1.6C13.7,82.3,15,85.5,17.5,87.2z M6.3,73.8
			c0.4,5.6,0.4,11.5,6.2,15.4C10.3,83.7,8.3,78.8,6.3,73.8z"/>
	</g>
</g>
<g id="WwWhTx_1_">
	<g>
		<path fill-rule="evenodd" clip-rule="evenodd" fill="#FFFFFF" d="M15.5,86.2c7.7,5.1,15.7,9.6,23.6,14.4c2.2,1.3,4.3,2.7,6.5,4
			c-0.2,0.3-0.5,0.6-0.7,1c-1.4-0.5-2.8-1-4.2-1.6c-0.2,0.3-0.3,0.7-0.5,1c4,2.3,8,4.7,12.1,7c-0.3,0.5-0.6,1-0.8,1.5
			c-13.7-5.3-25.7-14.2-39.4-19.6c5,4.1,10.1,7.9,15.6,11.2c5.4,3.4,11.1,6.3,16.7,9.5c-0.3,0.5-0.6,1.1-0.9,1.6
			c-7.6-3.9-15.5-7.3-22.7-11.8C1.3,92.1-3.7,78.7,2.5,56.8c0.4-1.4,0.9-3,1.9-4c4.5-4.7,9-9.5,14-13.8c9.7-8.4,19.6-16.5,29.3-24.6
			c-4.9-1.9-12.1-0.7-16.3-6.9c7.8,0.6,15.1,4,22.9,4.1c0-0.4,0.1-0.8,0.1-1.2c-1.5-0.3-3-0.6-4.6-0.9C49.9,9.1,50,8.7,50,8.3
			c3.3-0.2,6.7-0.4,10-0.5c-4.8-1.3-9.5-2.2-14.3-2.5C40.8,5,35.9,5.2,30.3,5.2c5.1-5.8,38.5-2,42.5,4c-1.5-0.3-3-0.7-5.9-1.3
			c1.8,3.1,2.8,5,3.7,6.6c-1.8,2.3-3.7,4.3-4.9,6.7c-3.4,6.4-6.5,13-9.8,19.5c-2.3,4.4-4.8,8.6-7.2,12.9c-0.5-0.2-0.9-0.4-1.4-0.7
			c2.4-7.5,4.7-15,7.1-22.6c-2.2,2.6-4.4,5-6.5,7.5c1.3-8.2,7.8-12.9,12-19.4c-6.9,3.7-13.5,8-20.2,12
			c-14.2,8.5-23.1,20.9-28.5,36.4c-1.2,3.5-1.2,6.3,1.9,8.7c0.3,0.2,0.3,0.8,0.6,1.5c-1.1,0.4-2.1,0.8-4.2,1.6
			C11.7,81.3,13,84.5,15.5,86.2z M4.3,72.8c0.4,5.6,0.4,11.5,6.2,15.4C8.3,82.7,6.3,77.8,4.3,72.8z"/>
	</g>
</g>
</svg>
