<?xml version="1.0" encoding="utf-8"?>
<!-- Generator: Adobe Illustrator 18.1.0, SVG Export Plug-In . SVG Version: 6.00 Build 0)  -->
<svg version="1.1" id="Isolation_Mode" xmlns="http://www.w3.org/2000/svg" xmlns:xlink="http://www.w3.org/1999/xlink" x="0px"
	 y="0px" viewBox="0 0 579.5 321.4" enable-background="new 0 0 579.5 321.4" xml:space="preserve">
<g>
	<path fill="#F5FBFE" d="M157.4,297.7c-9.5,11.3-26.9,18.9-52,22.8c-5.2,0.8-13.2,1.2-23.7,0.6c-15-0.8-24.4-3.8-28.6-9.8
		C48.3,304,15.4,266.4,3.7,191C-8.1,115.7,11.9,70,14.3,62c1.8-6.1,6.2-10.8,13.5-14.2c10.5-5.2,21.6-8.7,33.5-10.6
		c32.2-5,55.4,2.1,69.8,21.7c8.9,12,15.2,30.7,19.1,55.5c3.5,22.7,1.5,41.3-6,55.8c13.7,14.4,22.5,33.5,26.2,57.5
		C175.1,258.8,170.9,281.8,157.4,297.7z M57.1,90c-4.4,4.6-5.6,13.1-3.6,25.5c2,13,5.5,21.3,10.8,24.4c3.2,2.3,9.2,2.4,17.9,1.1
		c16.4-2.5,22.9-13.6,19.9-33.1c-3-19-12.4-26.9-28.5-24.4C65.2,84.8,59.8,86.8,57.1,90z M88.1,268.3c3.4,1.7,9.8,1.8,19.4,0.3
		c15.2-2.4,20.9-14.4,17.6-35.5c-2.9-18.4-12.1-27-27.8-26.2c-9.1,0.8-15.1,2.9-18.3,6.7c-4.5,5.7-5.5,15.3-3.3,29.9
		C77.8,257.2,81.9,265.4,88.1,268.3z"/>
	<path fill="#F5FBFE" d="M336.3,230.6c-13.1,23.3-30.9,35.2-53,35.2c-22.1,0-39.4-11.5-52.2-34.8c-12.5-23.3-18.8-55.8-18.8-97.7
		c0-41.9,6.3-74.8,18.8-98.1C243.7,11.9,261,0,283.3,0c36.5,0,59.7,29.7,69.5,88.6c2.3,14.2,3.5,29.3,3.5,44.7
		C356.3,174.9,349.7,207.3,336.3,230.6z M304.9,154.5c1-18.2-0.3-35.1-3.2-51.1c-4.2-23-11.9-35.1-22.5-35.5
		c-11.5-0.4-18,13.9-19.2,43.3c-1.6,39.4,3.5,66.7,16,81.9c3.8,4.8,8,6.5,12.5,5.2C298.5,195.2,303.9,180.5,304.9,154.5z"/>
	<path fill="#F5FBFE" d="M436.3,237.8c-13,20-29.4,29.6-49,28.4c-19.7-1.2-34.4-12.3-44.5-33.8c-9.9-21.4-13.7-50.6-11.4-87.9
		c2.3-37.3,9.6-66.2,22-86.2c12.4-20.1,28.4-29.7,48.3-28.5c32.5,2,51.5,29.6,57,82.6c1.3,12.8,1.6,26.2,0.7,39.9
		C457.1,189.3,449.4,217.8,436.3,237.8z M418.7,166.8c1.8-14.7,1.5-28.5-0.4-41.7c-2.7-18.9-9.2-29.2-19-30.1
		c-10.6-1-17.3,10.2-19.9,34.1c-3.4,31.9-0.1,54.4,10.7,67.4c3.3,4.1,7.1,5.7,11.3,4.9C410.8,199.5,416.6,187.9,418.7,166.8z"/>
	<path fill="#F5FBFE" d="M496.9,57.5c15.7,8.4,18.2,18.2,28.7,27.6c10.5,9.4,60.3,41.5,53.2,81.2c-2.3,12.9-6,22.7-11.2,29.4
		c-8.4,11-22.8,16.3-43.2,16.1l-10.1,0c-3.1,0-5.6,0.2-7,0.2c-3.2,0.3-5.5,1.1-6.6,2c-2.5,2.2-4.1,5.7-5,10.4
		c-0.8,4.8-1.9,10.4-2.8,16.9c-1.5,9.6-3.6,16.5-6.5,20.6c-4.9,7.5-15.1,10.7-30.2,9.4c-2.1-0.1-0.1,0-8-1.6
		c-8-1.6-9.5-3.8-12.7-8.9c-3.2-5.1,9.8-35.8,18-82.2c8-44.7,9-115.2,14.6-120.8C477.8,48.3,496.9,57.5,496.9,57.5z M534.8,143
		l-3.7-0.9c-6.2-1.7-10.9-1.9-14.2-0.8c-4.8,1.5-7.5,5.6-8.4,12.1c-1.5,11.1,3.6,17.5,15.2,18.7c11.1,1.1,17.3-3,19-12.6
		C544.3,150.2,541.6,144.8,534.8,143z"/>
	<g>
		<path fill="#F5FBFE" d="M260.5,261c1.8,6.7,1.2,12.2,1.2,18.8c0,1.8-0.5,6.1-2.8,12.7c-1.3,4.4-4.2,8.4-8.4,12.6
			c-7.6,7.8-17.9,12.7-31,14.2c-3.6,0.4-10.4,0.7-20.8,0.3c-7.3-1.3-13.3-6.9-18.1-17.5c-4.2-9.6-10.1-32.6-19.3-124.3
			c-3.7-36.1-7-70.2-9.8-102.2c-2.4-28.3-0.9-47.6,4.9-57.8c3.1-5.7,13.2-9.5,30.3-10.9c5-1.1,9.1,4.8,12.4,17.1
			c2.3,8.7,4.3,22.3,6.4,40.6c2.7,26.2,7,69.1,12.9,128.3l2,19.9c0.5,5.2,2.1,17.2,4.6,36c1.8,5.6,5.4,7.9,10.7,6.7
			c1.3-0.1,3.7-1,7.2-2.4c2.9-1.4,6.9-2.3,8.6-1.2C254.3,253.6,258.3,252.3,260.5,261z"/>
	</g>
</g>
</svg>
