<?xml version="1.0" encoding="utf-8"?>
<!-- Generator: Adobe Illustrator 18.1.0, SVG Export Plug-In . SVG Version: 6.00 Build 0)  -->
<svg version="1.1" id="Layer_1" xmlns="http://www.w3.org/2000/svg" xmlns:xlink="http://www.w3.org/1999/xlink" x="0px" y="0px"
	 viewBox="0 0 142.9 135.7" enable-background="new 0 0 142.9 135.7" xml:space="preserve">
<g>
	<path fill="#F47D67" d="M128.8,26.5c-8.2-10-38.6-30.4-69.7-6.9c-31,23.5-22.7,56-31,65.1c-8.3,9.1-13.6,18.1-8.3,20
		c5.3,1.9,60,36.8,102.2,0C147.5,82.5,149.7,52.2,128.8,26.5z"/>
	<path fill="#F47D67" d="M25.1,95.3c0,0-12.1-34.1-22-22c-9.8,12.1,6.8,22,6.8,22S-3.9,99.8,0,111.2C3.9,122.6,28.6,103.8,25.1,95.3
		z"/>
	<path fill="#F47D67" d="M101.5,108.2c0,0,12.9,21.2,0,26.9C88.7,140.7,94.7,108.2,101.5,108.2z"/>
	<path fill="#F47D67" d="M80.3,15.1c0,0,5.1-16.9-7-14.9c-3.8,0.8-1.8,5.3-1.8,5.3s-3.4-2.2-6.1,2.1c-3.4,5.4,4.3,10.1,6.1,9.8
		C73.3,17.1,80.3,15.1,80.3,15.1z"/>
	<path fill="#FFFFFF" d="M111.7,34.1c2.8,4,6.6,6.3,8.4,5c1.8-1.3,1-5.6-1.8-9.6c-2.8-4-6.6-6.3-8.4-5
		C108,25.8,108.8,30.1,111.7,34.1z"/>
	<path fill="#FFFFFF" d="M134.6,47.8c0,0-5.5,21.9-17.6,9.9c-3-3.3,0.6,6.9,7.1,6.6c6.6-0.3,10.7-10.3,11-12.2
		C135.5,50.1,136.1,43.5,134.6,47.8z"/>
</g>
</svg>
