<?xml version="1.0" encoding="utf-8"?>
<!-- Generator: Adobe Illustrator 16.0.0, SVG Export Plug-In . SVG Version: 6.00 Build 0)  -->
<!DOCTYPE svg PUBLIC "-//W3C//DTD SVG 1.1//EN" "http://www.w3.org/Graphics/SVG/1.1/DTD/svg11.dtd">
<svg version="1.1" id="Layer_1" xmlns="http://www.w3.org/2000/svg" xmlns:xlink="http://www.w3.org/1999/xlink" x="0px" y="0px"
	 width="640px" height="480px" viewBox="0 0 640 480" enable-background="new 0 0 640 480" xml:space="preserve">
<g id="B_x26_W" display="none">
	<g display="inline">
		<path d="M560.541,98.73l-0.283-0.219c-0.848-0.657-2.01-1.554-2.525-1.967c-0.43-0.457-1.441-1.706-2.211-2.656
			c-5.115-6.315-13.676-16.886-30.199-25.616l-1.857-0.928c-4.926-2.33-18.082-7.75-33.816-7.75c-5.068,0-10.043,0.574-14.838,1.706
			c-15.332-13.716-34.492-21.61-55.691-22.894c-1.992-0.12-3.986-0.18-5.924-0.18c-10.707,0-21.064,1.809-30.867,5.382
			c-18.574-20.366-42.826-31.093-70.471-31.093c-13.432,0-32.906,2.819-51.993,15.625c-10.876-8.019-22.37-9.839-30.563-9.839
			c-2.189,0-4.405,0.142-6.588,0.423c-26.783,2.438-46.14,11.463-57.651,26.852c-9.189-2.382-18.983-3.587-29.194-3.587
			c-7.485,0-15.381,0.636-23.465,1.888c-14.761,2.282-28.935,6.706-42.011,13.095c-18.366,8.586-35.501,22.703-40.936,40.755
			l-0.336,1.011c-13.165,39.592-16.099,83.571-8.719,130.714c10.923,69.76,38.552,108.292,47.627,120.95l1.192,1.697
			c4.506,6.551,22.761,26.482,65.333,28.701c3.882,0.221,7.677,0.333,11.279,0.333c7.13,0,13.573-0.438,19.142-1.303
			c15.073-2.328,27.976-5.872,39.272-10.799c7.831,5.725,16.659,9.468,26.304,11.146l2.637,0.461l3.694,0.208
			c3.505,0.129,6.855,0.193,9.958,0.193c6.023,0,10.993-0.236,15.195-0.721c21.616-2.492,40.542-11.385,54.705-25.688
			c7.076-7.074,12.299-14.386,15.871-22.245c9.334-2.051,18.188-5.494,26.418-10.273c12.41,7.529,26.775,11.964,41.871,12.884
			c1.992,0.118,3.969,0.179,5.873,0.179c11.008,0,27.377-2.043,44.256-11.479c1.314,0.332,2.662,0.637,4.039,0.91
			c1.23,0.241,2.088,0.415,2.529,0.527c3.48,0.883,6.479,1.345,10.016,1.545c0.521,0.039,1.035,0.057,1.555,0.089
			c-2.211,5.162-5.498,9.663-9.053,11.969c-9.684,6.286-21.721-0.221-15.324,9.011c6.639,9.579,33.354,12.706,51.27,3.464
			c19.4-10.006,28.803-28.827,33.049-40.983c0.82-0.962,1.609-1.953,2.326-3.002c4.285-6.162,8.014-21.444,11.768-37.951
			c26.682-2.784,43.828-7.792,56.168-18.946c11.773-10.64,19.717-27.392,22.994-45.689
			C632.232,149.508,578.477,112.607,560.541,98.73z"/>
		<g>
			<path fill="#FFFFFF" d="M185.976,334.791c-9.521,11.295-26.853,18.904-51.993,22.817c-5.194,0.807-13.225,1.164-23.745,0.566
				c-15.019-0.786-24.422-3.784-28.558-9.835c-4.752-7.294-37.681-44.856-49.411-120.245C20.541,152.715,40.52,107.053,42.9,99.091
				c1.82-6.083,6.197-10.78,13.544-14.156c10.47-5.2,21.626-8.718,33.469-10.561c32.207-5.013,55.443,2.086,69.777,21.722
				c8.89,12.007,15.198,30.662,19.062,55.5c3.526,22.656,1.525,41.264-5.997,55.829c13.729,14.375,22.455,33.544,26.184,57.511
				C203.754,295.876,199.458,318.861,185.976,334.791z M85.746,127.03c-4.359,4.563-5.567,13.082-3.627,25.546
				c2.024,13.005,5.538,21.338,10.765,24.412c3.208,2.277,9.25,2.447,17.91,1.1c16.387-2.549,22.91-13.555,19.875-33.066
				c-2.953-18.968-12.427-26.936-28.506-24.434C93.813,121.89,88.416,123.841,85.746,127.03z M116.666,305.401
				c3.428,1.687,9.782,1.807,19.369,0.317c15.152-2.358,20.886-14.353,17.597-35.491c-2.866-18.427-12.115-26.978-27.83-26.196
				c-9.052,0.847-15.068,2.899-18.272,6.725c-4.499,5.7-5.539,15.295-3.261,29.932C106.376,294.231,110.509,302.472,116.666,305.401
				z"/>
			<path fill="#FFFFFF" d="M364.918,267.695c-13.145,23.343-30.883,35.209-53.004,35.209c-22.119,0-39.439-11.473-52.167-34.812
				c-12.521-23.342-18.782-55.78-18.782-97.715c0-41.932,6.261-74.767,18.782-98.106c12.52-23.343,29.84-35.21,52.167-35.21
				c36.52,0,59.682,29.671,69.49,88.617c2.295,14.24,3.549,29.275,3.549,44.7C384.953,211.916,378.273,244.356,364.918,267.695z
				 M333.516,191.59c0.957-18.196-0.326-35.089-3.209-51.12c-4.172-22.958-11.868-35.089-22.455-35.52
				c-11.543-0.434-17.96,13.861-19.243,43.321c-1.604,39.418,3.528,66.71,16.038,81.873c3.848,4.767,8.02,6.497,12.508,5.2
				C327.098,232.31,332.551,217.582,333.516,191.59z"/>
			<path fill="#FFFFFF" d="M464.904,274.883c-12.953,20.047-29.371,29.635-49.037,28.433c-19.668-1.201-34.443-12.345-44.494-33.788
				c-9.865-21.436-13.67-50.624-11.393-87.913c2.277-37.291,9.627-66.15,22.029-86.222c12.398-20.081,28.441-29.693,48.295-28.478
				c32.471,1.979,51.453,29.622,56.971,82.574c1.27,12.789,1.564,26.226,0.729,39.945
				C485.748,226.371,478.047,254.854,464.904,274.883z M447.354,203.896c1.795-14.721,1.451-28.509-0.42-41.691
				c-2.703-18.878-9.207-29.163-18.959-30.11c-10.629-1.002-17.256,10.244-19.898,34.093c-3.436,31.925-0.055,54.379,10.738,67.397
				c3.312,4.083,7.07,5.721,11.281,4.922C439.418,236.608,445.184,224.952,447.354,203.896z"/>
			<path fill="#FFFFFF" d="M525.527,94.566c15.654,8.399,18.166,18.191,28.709,27.581c10.545,9.39,60.252,41.499,53.195,81.167
				c-2.303,12.944-5.965,22.742-11.217,29.352c-8.43,10.982-22.797,16.261-43.162,16.123l-10.059-0.049
				c-3.125,0.023-5.555,0.174-6.994,0.206c-3.174,0.303-5.465,1.06-6.596,2.02c-2.543,2.158-4.123,5.653-4.977,10.434
				c-0.85,4.784-1.852,10.41-2.768,16.921c-1.473,9.606-3.65,16.479-6.543,20.604c-4.936,7.54-15.09,10.667-30.217,9.427
				c-2.143-0.09-0.082-0.017-7.955-1.582c-7.963-1.583-9.549-3.839-12.715-8.949c-3.172-5.106,9.756-35.751,18.016-82.172
				c7.961-44.731,8.988-115.242,14.598-120.8C506.404,85.374,525.527,94.566,525.527,94.566z M563.357,180.093l-3.67-0.945
				c-6.174-1.678-10.924-1.943-14.246-0.792c-4.822,1.466-7.48,5.634-8.4,12.147c-1.484,11.055,3.611,17.475,15.152,18.659
				c11.072,1.1,17.326-3.013,19.023-12.579C572.865,187.3,570.23,181.897,563.357,180.093z"/>
			<g>
				<path fill="#FFFFFF" d="M289.108,298.071c1.794,6.682,1.236,12.153,1.208,18.781c-0.007,1.813-0.465,6.07-2.807,12.702
					c-1.3,4.388-4.224,8.437-8.404,12.634c-7.628,7.771-17.93,12.675-30.96,14.186c-3.611,0.421-10.416,0.682-20.78,0.29
					c-7.279-1.274-13.258-6.938-18.146-17.501c-4.156-9.588-10.077-32.63-19.265-124.304c-3.685-36.139-6.999-70.199-9.784-102.202
					c-2.413-28.337-0.881-47.593,4.908-57.805c3.078-5.654,13.173-9.476,30.339-10.937c4.97-1.106,9.064,4.776,12.389,17.111
					c2.32,8.741,4.336,22.284,6.363,40.596c2.669,26.19,7.048,69.137,12.926,128.337l2.028,19.903
					c0.535,5.237,2.076,17.245,4.626,36.027c1.844,5.616,5.409,7.852,10.692,6.71c1.257-0.146,3.715-0.961,7.219-2.428
					c2.876-1.392,6.893-2.348,8.649-1.211C282.924,290.653,286.944,289.315,289.108,298.071z"/>
			</g>
		</g>
	</g>
	<g display="inline">
		<path d="M415.018,358.266c-8.182-10.037-38.613-30.371-69.652-6.901c-31.039,23.469-22.713,56.022-31.039,65.107
			c-8.328,9.086-13.628,18.063-8.328,20.011c5.3,1.944,60.027,36.771,102.205,0C433.699,414.255,435.922,383.917,415.018,358.266z"
			/>
		<path d="M311.298,427.071c0,0-12.113-34.068-21.956-21.955c-9.842,12.113,6.814,21.955,6.814,21.955s-13.793,4.542-9.925,15.899
			C290.099,454.326,314.853,435.558,311.298,427.071z"/>
		<path d="M387.762,439.941c0,0,12.871,21.199,0,26.877S380.947,439.941,387.762,439.941z"/>
		<path d="M366.525,346.82c0,0,5.082-16.908-7.031-14.89c-3.785,0.757-1.764,5.3-1.764,5.3s-3.375-2.239-6.059,2.061
			c-3.389,5.434,4.293,10.052,6.059,9.8C359.494,348.839,366.525,346.82,366.525,346.82z"/>
		<path fill="#FFFFFF" d="M397.9,365.873c2.822,4.03,6.586,6.278,8.404,5.004c1.811-1.274,0.992-5.576-1.834-9.604
			c-2.822-4.038-6.584-6.276-8.4-5.004C394.258,357.54,395.078,361.84,397.9,365.873z"/>
		<path fill="#FFFFFF" d="M420.869,379.576c0,0-5.484,21.941-17.555,9.872c-3.018-3.29,0.551,6.857,7.131,6.583
			c6.584-0.274,10.697-10.287,10.971-12.207C421.691,381.904,422.318,375.309,420.869,379.576z"/>
	</g>
</g>
<g id="Mono__x28_Blue_x29_" display="none">
	<g display="inline">
		<path fill="#85CBF1" d="M560.541,98.73l-0.283-0.219c-0.848-0.657-2.01-1.554-2.525-1.967c-0.43-0.457-1.441-1.706-2.211-2.656
			c-5.115-6.315-13.676-16.886-30.199-25.616l-1.857-0.928c-4.926-2.33-18.082-7.75-33.816-7.75c-5.068,0-10.043,0.574-14.838,1.706
			c-15.332-13.716-34.492-21.61-55.691-22.894c-1.992-0.12-3.986-0.18-5.924-0.18c-10.707,0-21.064,1.809-30.867,5.382
			c-18.574-20.366-42.826-31.093-70.471-31.093c-13.432,0-32.906,2.819-51.993,15.625c-10.876-8.019-22.37-9.839-30.563-9.839
			c-2.188,0-4.404,0.142-6.588,0.423c-26.783,2.438-46.14,11.463-57.65,26.852c-9.189-2.382-18.984-3.587-29.195-3.587
			c-7.484,0-15.381,0.636-23.465,1.888c-14.762,2.282-28.936,6.706-42.011,13.095c-18.366,8.586-35.501,22.703-40.936,40.755
			l-0.336,1.011c-13.165,39.592-16.099,83.571-8.719,130.714c10.923,69.76,38.552,108.292,47.627,120.95l1.192,1.697
			c4.506,6.551,22.761,26.482,65.332,28.701c3.883,0.221,7.678,0.333,11.279,0.333c7.131,0,13.573-0.438,19.142-1.303
			c15.073-2.328,27.976-5.872,39.272-10.799c7.83,5.725,16.658,9.468,26.303,11.146l2.637,0.461l3.694,0.208
			c3.505,0.129,6.855,0.193,9.958,0.193c6.023,0,10.994-0.236,15.195-0.721c21.615-2.492,40.541-11.385,54.705-25.688
			c7.076-7.074,12.299-14.386,15.871-22.245c9.334-2.051,18.188-5.494,26.418-10.273c12.41,7.529,26.775,11.964,41.871,12.884
			c1.992,0.118,3.969,0.179,5.873,0.179c11.008,0,27.377-2.043,44.256-11.479c1.314,0.332,2.662,0.637,4.039,0.91
			c1.23,0.241,2.088,0.415,2.529,0.527c3.48,0.883,6.479,1.345,10.016,1.545c0.521,0.039,1.035,0.057,1.555,0.089
			c-2.211,5.162-5.498,9.663-9.053,11.969c-9.684,6.286-21.721-0.221-15.324,9.011c6.639,9.579,33.354,12.706,51.27,3.464
			c19.4-10.006,28.803-28.827,33.049-40.983c0.82-0.962,1.609-1.953,2.326-3.002c4.285-6.162,8.014-21.444,11.768-37.951
			c26.682-2.784,43.828-7.792,56.168-18.946c11.773-10.64,19.717-27.392,22.994-45.689
			C632.232,149.508,578.477,112.607,560.541,98.73z"/>
		<g>
			<path fill="#F5FBFE" d="M185.976,334.791c-9.521,11.295-26.853,18.904-51.993,22.817c-5.193,0.807-13.225,1.164-23.745,0.566
				c-15.019-0.786-24.422-3.784-28.558-9.835c-4.752-7.294-37.681-44.856-49.41-120.245C20.541,152.715,40.52,107.053,42.9,99.091
				c1.819-6.083,6.197-10.78,13.544-14.156c10.47-5.2,21.626-8.718,33.469-10.561c32.206-5.013,55.443,2.086,69.777,21.722
				c8.89,12.007,15.198,30.662,19.062,55.5c3.527,22.656,1.525,41.264-5.996,55.829c13.729,14.375,22.455,33.544,26.184,57.511
				C203.754,295.876,199.457,318.861,185.976,334.791z M85.746,127.03c-4.359,4.563-5.567,13.082-3.628,25.546
				c2.024,13.005,5.538,21.338,10.765,24.412c3.208,2.277,9.25,2.447,17.91,1.1c16.388-2.549,22.91-13.555,19.875-33.066
				c-2.952-18.968-12.426-26.936-28.506-24.434C93.812,121.89,88.416,123.841,85.746,127.03z M116.666,305.401
				c3.428,1.687,9.781,1.807,19.369,0.317c15.152-2.358,20.887-14.353,17.597-35.491c-2.866-18.427-12.114-26.978-27.829-26.196
				c-9.053,0.847-15.068,2.899-18.273,6.725c-4.498,5.7-5.539,15.295-3.261,29.932C106.376,294.231,110.509,302.472,116.666,305.401
				z"/>
			<path fill="#F5FBFE" d="M364.918,267.695c-13.145,23.343-30.883,35.209-53.004,35.209c-22.119,0-39.439-11.473-52.168-34.812
				c-12.521-23.342-18.781-55.78-18.781-97.715c0-41.932,6.26-74.767,18.781-98.106c12.521-23.343,29.841-35.21,52.168-35.21
				c36.52,0,59.682,29.671,69.49,88.617c2.295,14.24,3.549,29.275,3.549,44.7C384.953,211.916,378.273,244.356,364.918,267.695z
				 M333.516,191.59c0.957-18.196-0.326-35.089-3.209-51.12c-4.172-22.958-11.868-35.089-22.455-35.52
				c-11.543-0.434-17.961,13.861-19.242,43.321c-1.605,39.418,3.527,66.71,16.037,81.873c3.848,4.767,8.02,6.497,12.508,5.2
				C327.098,232.31,332.551,217.582,333.516,191.59z"/>
			<path fill="#F5FBFE" d="M464.904,274.883c-12.953,20.047-29.371,29.635-49.037,28.433c-19.668-1.201-34.443-12.345-44.494-33.788
				c-9.865-21.436-13.67-50.624-11.393-87.913c2.277-37.291,9.627-66.15,22.029-86.222c12.398-20.081,28.441-29.693,48.295-28.478
				c32.471,1.979,51.453,29.622,56.971,82.574c1.27,12.789,1.564,26.226,0.729,39.945
				C485.748,226.371,478.047,254.854,464.904,274.883z M447.354,203.896c1.795-14.721,1.451-28.509-0.42-41.691
				c-2.703-18.878-9.207-29.163-18.959-30.11c-10.629-1.002-17.256,10.244-19.898,34.093c-3.436,31.925-0.055,54.379,10.738,67.397
				c3.312,4.083,7.07,5.721,11.281,4.922C439.418,236.608,445.184,224.952,447.354,203.896z"/>
			<path fill="#F5FBFE" d="M525.527,94.566c15.654,8.399,18.166,18.191,28.709,27.581c10.545,9.39,60.252,41.499,53.195,81.167
				c-2.303,12.944-5.965,22.742-11.217,29.352c-8.43,10.982-22.797,16.261-43.162,16.123l-10.059-0.049
				c-3.125,0.023-5.555,0.174-6.994,0.206c-3.174,0.303-5.465,1.06-6.596,2.02c-2.543,2.158-4.123,5.653-4.977,10.434
				c-0.85,4.784-1.852,10.41-2.768,16.921c-1.473,9.606-3.65,16.479-6.543,20.604c-4.936,7.54-15.09,10.667-30.217,9.427
				c-2.143-0.09-0.082-0.017-7.955-1.582c-7.963-1.583-9.549-3.839-12.715-8.949c-3.172-5.106,9.756-35.751,18.016-82.172
				c7.961-44.731,8.988-115.242,14.598-120.8C506.404,85.374,525.527,94.566,525.527,94.566z M563.357,180.093l-3.67-0.945
				c-6.174-1.678-10.924-1.943-14.246-0.792c-4.822,1.466-7.48,5.634-8.4,12.147c-1.484,11.055,3.611,17.475,15.152,18.659
				c11.072,1.1,17.326-3.013,19.023-12.579C572.865,187.3,570.23,181.897,563.357,180.093z"/>
			<g>
				<path fill="#F5FBFE" d="M289.107,298.071c1.795,6.682,1.236,12.153,1.209,18.781c-0.008,1.813-0.465,6.07-2.807,12.702
					c-1.301,4.388-4.225,8.437-8.404,12.634c-7.628,7.771-17.93,12.675-30.961,14.186c-3.611,0.421-10.416,0.682-20.779,0.29
					c-7.279-1.274-13.258-6.938-18.146-17.501c-4.156-9.588-10.078-32.63-19.266-124.304c-3.685-36.139-6.999-70.199-9.784-102.202
					c-2.413-28.337-0.882-47.593,4.907-57.805c3.078-5.654,13.174-9.476,30.34-10.937c4.97-1.106,9.064,4.776,12.389,17.111
					c2.32,8.741,4.336,22.284,6.363,40.596c2.669,26.19,7.048,69.137,12.926,128.337l2.028,19.903
					c0.534,5.237,2.076,17.245,4.626,36.027c1.844,5.616,5.408,7.852,10.692,6.71c1.257-0.146,3.716-0.961,7.22-2.428
					c2.876-1.392,6.893-2.348,8.648-1.211C282.924,290.653,286.944,289.315,289.107,298.071z"/>
			</g>
		</g>
	</g>
	<g display="inline">
		<path fill="#85CBF1" d="M415.018,358.266c-8.182-10.037-38.613-30.371-69.652-6.901c-31.039,23.469-22.713,56.022-31.039,65.107
			c-8.328,9.086-13.628,18.063-8.328,20.011c5.3,1.944,60.027,36.771,102.205,0C433.699,414.255,435.922,383.917,415.018,358.266z"
			/>
		<path fill="#85CBF1" d="M311.298,427.071c0,0-12.113-34.068-21.956-21.955c-9.842,12.113,6.814,21.955,6.814,21.955
			s-13.793,4.542-9.926,15.899C290.1,454.326,314.853,435.558,311.298,427.071z"/>
		<path fill="#85CBF1" d="M387.762,439.941c0,0,12.871,21.199,0,26.877S380.947,439.941,387.762,439.941z"/>
		<path fill="#85CBF1" d="M366.525,346.82c0,0,5.082-16.908-7.031-14.89c-3.785,0.757-1.764,5.3-1.764,5.3s-3.375-2.239-6.059,2.061
			c-3.389,5.434,4.293,10.052,6.059,9.8C359.494,348.839,366.525,346.82,366.525,346.82z"/>
		<path fill="#FFFFFF" d="M397.9,365.873c2.822,4.03,6.586,6.278,8.404,5.004c1.811-1.274,0.992-5.576-1.834-9.604
			c-2.822-4.038-6.584-6.276-8.4-5.004C394.258,357.54,395.078,361.84,397.9,365.873z"/>
		<path fill="#FFFFFF" d="M420.869,379.576c0,0-5.484,21.941-17.555,9.872c-3.018-3.29,0.551,6.857,7.131,6.583
			c6.584-0.274,10.697-10.287,10.971-12.207C421.691,381.904,422.318,375.309,420.869,379.576z"/>
	</g>
</g>
<g id="Mono__x28_Orange_x29_" display="none">
	<g display="inline">
		<path fill="#F47D67" d="M560.541,98.73l-0.283-0.219c-0.848-0.657-2.01-1.554-2.525-1.967c-0.43-0.457-1.441-1.706-2.211-2.656
			c-5.115-6.315-13.676-16.886-30.199-25.616l-1.857-0.928c-4.926-2.33-18.082-7.75-33.816-7.75c-5.068,0-10.043,0.574-14.838,1.706
			c-15.332-13.716-34.492-21.61-55.691-22.894c-1.992-0.12-3.986-0.18-5.924-0.18c-10.707,0-21.064,1.809-30.867,5.382
			c-18.574-20.366-42.826-31.093-70.471-31.093c-13.432,0-32.906,2.819-51.993,15.625c-10.876-8.019-22.37-9.839-30.563-9.839
			c-2.189,0-4.405,0.142-6.588,0.423c-26.783,2.438-46.14,11.463-57.651,26.852c-9.189-2.382-18.983-3.587-29.194-3.587
			c-7.485,0-15.381,0.636-23.465,1.888c-14.761,2.282-28.935,6.706-42.011,13.095c-18.366,8.586-35.501,22.703-40.936,40.755
			l-0.336,1.011c-13.165,39.592-16.099,83.571-8.719,130.714c10.923,69.76,38.552,108.292,47.627,120.95l1.192,1.697
			c4.506,6.551,22.761,26.482,65.333,28.701c3.882,0.221,7.677,0.333,11.279,0.333c7.13,0,13.573-0.438,19.142-1.303
			c15.073-2.328,27.976-5.872,39.272-10.799c7.831,5.725,16.659,9.468,26.304,11.146l2.637,0.461l3.694,0.208
			c3.505,0.129,6.855,0.193,9.958,0.193c6.023,0,10.993-0.236,15.195-0.721c21.616-2.492,40.542-11.385,54.705-25.688
			c7.076-7.074,12.299-14.386,15.871-22.245c9.334-2.051,18.188-5.494,26.418-10.273c12.41,7.529,26.775,11.964,41.871,12.884
			c1.992,0.118,3.969,0.179,5.873,0.179c11.008,0,27.377-2.043,44.256-11.479c1.314,0.332,2.662,0.637,4.039,0.91
			c1.23,0.241,2.088,0.415,2.529,0.527c3.48,0.883,6.479,1.345,10.016,1.545c0.521,0.039,1.035,0.057,1.555,0.089
			c-2.211,5.162-5.498,9.663-9.053,11.969c-9.684,6.286-21.721-0.221-15.324,9.011c6.639,9.579,33.354,12.706,51.27,3.464
			c19.4-10.006,28.803-28.827,33.049-40.983c0.82-0.962,1.609-1.953,2.326-3.002c4.285-6.162,8.014-21.444,11.768-37.951
			c26.682-2.784,43.828-7.792,56.168-18.946c11.773-10.64,19.717-27.392,22.994-45.689
			C632.232,149.508,578.477,112.607,560.541,98.73z"/>
		<g>
			<path fill="#F5FBFE" d="M185.976,334.791c-9.521,11.295-26.853,18.904-51.993,22.817c-5.194,0.807-13.225,1.164-23.745,0.566
				c-15.019-0.786-24.422-3.784-28.558-9.835c-4.752-7.294-37.681-44.856-49.411-120.245C20.541,152.715,40.52,107.053,42.9,99.091
				c1.82-6.083,6.197-10.78,13.544-14.156c10.47-5.2,21.626-8.718,33.469-10.561c32.207-5.013,55.443,2.086,69.777,21.722
				c8.89,12.007,15.198,30.662,19.062,55.5c3.526,22.656,1.525,41.264-5.997,55.829c13.729,14.375,22.455,33.544,26.184,57.511
				C203.754,295.876,199.458,318.861,185.976,334.791z M85.746,127.03c-4.359,4.563-5.567,13.082-3.627,25.546
				c2.024,13.005,5.538,21.338,10.765,24.412c3.208,2.277,9.25,2.447,17.91,1.1c16.387-2.549,22.91-13.555,19.875-33.066
				c-2.953-18.968-12.427-26.936-28.506-24.434C93.813,121.89,88.416,123.841,85.746,127.03z M116.666,305.401
				c3.428,1.687,9.782,1.807,19.369,0.317c15.152-2.358,20.886-14.353,17.597-35.491c-2.866-18.427-12.115-26.978-27.83-26.196
				c-9.052,0.847-15.068,2.899-18.272,6.725c-4.499,5.7-5.539,15.295-3.261,29.932C106.376,294.231,110.509,302.472,116.666,305.401
				z"/>
			<path fill="#F5FBFE" d="M364.918,267.695c-13.145,23.343-30.883,35.209-53.004,35.209c-22.119,0-39.439-11.473-52.167-34.812
				c-12.521-23.342-18.782-55.78-18.782-97.715c0-41.932,6.261-74.767,18.782-98.106c12.52-23.343,29.84-35.21,52.167-35.21
				c36.52,0,59.682,29.671,69.49,88.617c2.295,14.24,3.549,29.275,3.549,44.7C384.953,211.916,378.273,244.356,364.918,267.695z
				 M333.516,191.59c0.957-18.196-0.326-35.089-3.209-51.12c-4.172-22.958-11.868-35.089-22.455-35.52
				c-11.543-0.434-17.96,13.861-19.243,43.321c-1.604,39.418,3.528,66.71,16.038,81.873c3.848,4.767,8.02,6.497,12.508,5.2
				C327.098,232.31,332.551,217.582,333.516,191.59z"/>
			<path fill="#F5FBFE" d="M464.904,274.883c-12.953,20.047-29.371,29.635-49.037,28.433c-19.668-1.201-34.443-12.345-44.494-33.788
				c-9.865-21.436-13.67-50.624-11.393-87.913c2.277-37.291,9.627-66.15,22.029-86.222c12.398-20.081,28.441-29.693,48.295-28.478
				c32.471,1.979,51.453,29.622,56.971,82.574c1.27,12.789,1.564,26.226,0.729,39.945
				C485.748,226.371,478.047,254.854,464.904,274.883z M447.354,203.896c1.795-14.721,1.451-28.509-0.42-41.691
				c-2.703-18.878-9.207-29.163-18.959-30.11c-10.629-1.002-17.256,10.244-19.898,34.093c-3.436,31.925-0.055,54.379,10.738,67.397
				c3.312,4.083,7.07,5.721,11.281,4.922C439.418,236.608,445.184,224.952,447.354,203.896z"/>
			<path fill="#F5FBFE" d="M525.527,94.566c15.654,8.399,18.166,18.191,28.709,27.581c10.545,9.39,60.252,41.499,53.195,81.167
				c-2.303,12.944-5.965,22.742-11.217,29.352c-8.43,10.982-22.797,16.261-43.162,16.123l-10.059-0.049
				c-3.125,0.023-5.555,0.174-6.994,0.206c-3.174,0.303-5.465,1.06-6.596,2.02c-2.543,2.158-4.123,5.653-4.977,10.434
				c-0.85,4.784-1.852,10.41-2.768,16.921c-1.473,9.606-3.65,16.479-6.543,20.604c-4.936,7.54-15.09,10.667-30.217,9.427
				c-2.143-0.09-0.082-0.017-7.955-1.582c-7.963-1.583-9.549-3.839-12.715-8.949c-3.172-5.106,9.756-35.751,18.016-82.172
				c7.961-44.731,8.988-115.242,14.598-120.8C506.404,85.374,525.527,94.566,525.527,94.566z M563.357,180.093l-3.67-0.945
				c-6.174-1.678-10.924-1.943-14.246-0.792c-4.822,1.466-7.48,5.634-8.4,12.147c-1.484,11.055,3.611,17.475,15.152,18.659
				c11.072,1.1,17.326-3.013,19.023-12.579C572.865,187.3,570.23,181.897,563.357,180.093z"/>
			<g>
				<path fill="#F5FBFE" d="M289.108,298.071c1.794,6.682,1.236,12.153,1.208,18.781c-0.007,1.813-0.465,6.07-2.807,12.702
					c-1.3,4.388-4.224,8.437-8.404,12.634c-7.628,7.771-17.93,12.675-30.96,14.186c-3.611,0.421-10.416,0.682-20.78,0.29
					c-7.279-1.274-13.258-6.938-18.146-17.501c-4.156-9.588-10.077-32.63-19.265-124.304c-3.685-36.139-6.999-70.199-9.784-102.202
					c-2.413-28.337-0.881-47.593,4.908-57.805c3.078-5.654,13.173-9.476,30.339-10.937c4.97-1.106,9.064,4.776,12.389,17.111
					c2.32,8.741,4.336,22.284,6.363,40.596c2.669,26.19,7.048,69.137,12.926,128.337l2.028,19.903
					c0.535,5.237,2.076,17.245,4.626,36.027c1.844,5.616,5.409,7.852,10.692,6.71c1.257-0.146,3.715-0.961,7.219-2.428
					c2.876-1.392,6.893-2.348,8.649-1.211C282.924,290.653,286.944,289.315,289.108,298.071z"/>
			</g>
		</g>
	</g>
	<g display="inline">
		<path fill="#F47D67" d="M415.018,358.266c-8.182-10.037-38.613-30.371-69.652-6.901c-31.039,23.469-22.713,56.022-31.039,65.107
			c-8.328,9.086-13.628,18.063-8.328,20.011c5.3,1.944,60.027,36.771,102.205,0C433.699,414.255,435.922,383.917,415.018,358.266z"
			/>
		<path fill="#F47D67" d="M311.298,427.071c0,0-12.113-34.068-21.956-21.955c-9.842,12.113,6.814,21.955,6.814,21.955
			s-13.793,4.542-9.925,15.899C290.099,454.326,314.853,435.558,311.298,427.071z"/>
		<path fill="#F47D67" d="M387.762,439.941c0,0,12.871,21.199,0,26.877S380.947,439.941,387.762,439.941z"/>
		<path fill="#F47D67" d="M366.525,346.82c0,0,5.082-16.908-7.031-14.89c-3.785,0.757-1.764,5.3-1.764,5.3s-3.375-2.239-6.059,2.061
			c-3.389,5.434,4.293,10.052,6.059,9.8C359.494,348.839,366.525,346.82,366.525,346.82z"/>
		<path fill="#FFFFFF" d="M397.9,365.873c2.822,4.03,6.586,6.278,8.404,5.004c1.811-1.274,0.992-5.576-1.834-9.604
			c-2.822-4.038-6.584-6.276-8.4-5.004C394.258,357.54,395.078,361.84,397.9,365.873z"/>
		<path fill="#FFFFFF" d="M420.869,379.576c0,0-5.484,21.941-17.555,9.872c-3.018-3.29,0.551,6.857,7.131,6.583
			c6.584-0.274,10.697-10.287,10.971-12.207C421.691,381.904,422.318,375.309,420.869,379.576z"/>
	</g>
</g>
<g id="Full_Color">
	<g>
		<path fill="#85CBF1" d="M560.541,98.73l-0.282-0.219c-0.849-0.657-2.011-1.554-2.526-1.967c-0.43-0.457-1.44-1.706-2.211-2.656
			c-5.114-6.315-13.676-16.886-30.199-25.616l-1.856-0.928c-4.927-2.33-18.082-7.75-33.816-7.75c-5.068,0-10.043,0.574-14.838,1.706
			c-15.333-13.716-34.493-21.61-55.691-22.894c-1.993-0.12-3.986-0.18-5.924-0.18c-10.707,0-21.064,1.809-30.868,5.382
			c-18.574-20.366-42.826-31.093-70.47-31.093c-13.433,0-32.906,2.819-51.994,15.625c-10.876-8.019-22.37-9.839-30.563-9.839
			c-2.189,0-4.405,0.142-6.588,0.423c-26.783,2.438-46.14,11.463-57.651,26.852c-9.189-2.382-18.983-3.587-29.194-3.587
			c-7.485,0-15.381,0.636-23.465,1.888c-14.761,2.282-28.935,6.706-42.011,13.095c-18.366,8.586-35.501,22.703-40.936,40.755
			l-0.336,1.011c-13.165,39.592-16.099,83.571-8.719,130.714c10.923,69.76,38.552,108.292,47.627,120.95l1.192,1.697
			c4.506,6.551,22.761,26.482,65.333,28.701c3.882,0.221,7.677,0.333,11.279,0.333c7.13,0,13.573-0.438,19.142-1.303
			c15.073-2.328,27.976-5.872,39.272-10.799c7.831,5.725,16.659,9.468,26.304,11.146l2.637,0.461l3.694,0.208
			c3.505,0.129,6.855,0.193,9.958,0.193c6.023,0,10.993-0.236,15.195-0.721c21.616-2.492,40.542-11.385,54.705-25.688
			c7.076-7.074,12.3-14.386,15.872-22.245c9.333-2.051,18.188-5.494,26.418-10.273c12.409,7.529,26.775,11.964,41.871,12.884
			c1.992,0.118,3.968,0.179,5.873,0.179c11.008,0,27.376-2.043,44.256-11.479c1.314,0.332,2.662,0.637,4.039,0.91
			c1.229,0.241,2.087,0.415,2.528,0.527c3.48,0.883,6.479,1.345,10.016,1.545c0.522,0.039,1.035,0.057,1.556,0.089
			c-2.212,5.162-5.499,9.663-9.053,11.969c-9.685,6.286-21.721-0.221-15.324,9.011c6.638,9.579,33.353,12.706,51.269,3.464
			c19.4-10.006,28.804-28.827,33.05-40.983c0.82-0.962,1.608-1.953,2.326-3.002c4.284-6.162,8.013-21.444,11.768-37.951
			c26.681-2.784,43.828-7.792,56.168-18.946c11.773-10.64,19.716-27.392,22.993-45.689
			C632.233,149.508,578.478,112.607,560.541,98.73z"/>
		<g>
			<path fill="#F5FBFE" d="M185.976,334.791c-9.521,11.295-26.853,18.904-51.993,22.817c-5.194,0.807-13.225,1.164-23.745,0.566
				c-15.019-0.786-24.422-3.784-28.558-9.835C76.928,341.046,44,303.483,32.27,228.095C20.542,152.715,40.521,107.053,42.9,99.091
				c1.82-6.083,6.197-10.78,13.544-14.156c10.47-5.2,21.626-8.718,33.469-10.561c32.207-5.013,55.443,2.086,69.777,21.722
				c8.89,12.007,15.198,30.662,19.062,55.5c3.526,22.656,1.525,41.264-5.997,55.829c13.729,14.375,22.455,33.544,26.184,57.511
				C203.755,295.876,199.458,318.861,185.976,334.791z M85.746,127.03c-4.359,4.563-5.567,13.082-3.627,25.546
				c2.024,13.005,5.538,21.338,10.765,24.412c3.208,2.277,9.25,2.447,17.91,1.1c16.387-2.549,22.91-13.555,19.875-33.066
				c-2.953-18.968-12.427-26.936-28.506-24.434C93.813,121.89,88.416,123.841,85.746,127.03z M116.667,305.401
				c3.428,1.687,9.782,1.807,19.369,0.317c15.152-2.358,20.886-14.353,17.597-35.491c-2.866-18.427-12.115-26.978-27.83-26.196
				c-9.052,0.847-15.068,2.899-18.272,6.725c-4.499,5.7-5.539,15.295-3.261,29.932C106.376,294.231,110.509,302.472,116.667,305.401
				z"/>
			<path fill="#F5FBFE" d="M364.919,267.695c-13.146,23.343-30.883,35.209-53.004,35.209c-22.119,0-39.439-11.473-52.167-34.812
				c-12.521-23.342-18.782-55.78-18.782-97.715c0-41.932,6.261-74.767,18.782-98.106c12.52-23.343,29.84-35.21,52.167-35.21
				c36.519,0,59.682,29.671,69.491,88.617c2.294,14.24,3.548,29.275,3.548,44.7C384.953,211.916,378.274,244.356,364.919,267.695z
				 M333.516,191.59c0.958-18.196-0.325-35.089-3.209-51.12c-4.172-22.958-11.868-35.089-22.455-35.52
				c-11.543-0.434-17.96,13.861-19.242,43.321c-1.604,39.418,3.528,66.71,16.038,81.873c3.847,4.767,8.019,6.497,12.508,5.2
				C327.098,232.31,332.551,217.582,333.516,191.59z"/>
			<path fill="#F5FBFE" d="M464.905,274.883c-12.953,20.047-29.372,29.635-49.038,28.433c-19.667-1.201-34.443-12.345-44.493-33.788
				c-9.865-21.436-13.671-50.624-11.394-87.913c2.278-37.291,9.628-66.15,22.029-86.222c12.399-20.081,28.441-29.693,48.295-28.478
				c32.472,1.979,51.454,29.622,56.972,82.574c1.27,12.789,1.563,26.226,0.728,39.945
				C485.748,226.371,478.048,254.854,464.905,274.883z M447.354,203.896c1.794-14.721,1.451-28.509-0.421-41.691
				c-2.702-18.878-9.207-29.163-18.958-30.11c-10.63-1.002-17.256,10.244-19.898,34.093c-3.437,31.925-0.055,54.379,10.737,67.397
				c3.313,4.083,7.07,5.721,11.281,4.922C439.418,236.608,445.184,224.952,447.354,203.896z"/>
			<path fill="#F5FBFE" d="M525.528,94.566c15.653,8.399,18.165,18.191,28.709,27.581s60.251,41.499,53.194,81.167
				c-2.303,12.944-5.965,22.742-11.216,29.352c-8.43,10.982-22.798,16.261-43.163,16.123l-10.059-0.049
				c-3.124,0.023-5.554,0.174-6.993,0.206c-3.174,0.303-5.466,1.06-6.596,2.02c-2.544,2.158-4.123,5.653-4.978,10.434
				c-0.85,4.784-1.851,10.41-2.768,16.921c-1.472,9.606-3.649,16.479-6.542,20.604c-4.936,7.54-15.091,10.667-30.217,9.427
				c-2.143-0.09-0.082-0.017-7.956-1.582c-7.962-1.583-9.548-3.839-12.715-8.949c-3.172-5.106,9.757-35.751,18.017-82.172
				c7.96-44.731,8.987-115.242,14.598-120.8C506.405,85.374,525.528,94.566,525.528,94.566z M563.358,180.093l-3.67-0.945
				c-6.174-1.678-10.925-1.943-14.246-0.792c-4.823,1.466-7.481,5.634-8.401,12.147c-1.484,11.055,3.611,17.475,15.152,18.659
				c11.073,1.1,17.326-3.013,19.024-12.579C572.866,187.3,570.231,181.897,563.358,180.093z"/>
			<g>
				<path fill="#F5FBFE" d="M289.108,298.071c1.794,6.682,1.236,12.153,1.208,18.781c-0.007,1.813-0.465,6.07-2.807,12.702
					c-1.3,4.388-4.224,8.437-8.404,12.634c-7.628,7.771-17.93,12.675-30.96,14.186c-3.611,0.421-10.416,0.682-20.78,0.29
					c-7.279-1.274-13.258-6.938-18.146-17.501c-4.156-9.588-10.077-32.63-19.265-124.304c-3.685-36.139-6.999-70.199-9.784-102.202
					c-2.413-28.337-0.881-47.593,4.908-57.805c3.078-5.654,13.173-9.476,30.339-10.937c4.97-1.106,9.064,4.776,12.389,17.111
					c2.32,8.741,4.336,22.284,6.363,40.596c2.669,26.19,7.048,69.137,12.926,128.337l2.028,19.903
					c0.535,5.237,2.076,17.245,4.626,36.027c1.844,5.616,5.409,7.852,10.692,6.71c1.257-0.146,3.715-0.961,7.219-2.428
					c2.876-1.392,6.893-2.348,8.649-1.211C282.925,290.653,286.945,289.315,289.108,298.071z"/>
			</g>
		</g>
	</g>
	<g>
		<path fill="#F47D67" d="M415.019,358.266c-8.183-10.037-38.613-30.371-69.653-6.901c-31.039,23.469-22.713,56.022-31.039,65.107
			c-8.328,9.086-13.628,18.063-8.328,20.011c5.3,1.944,60.027,36.771,102.206,0C433.699,414.255,435.923,383.917,415.019,358.266z"
			/>
		<path fill="#F47D67" d="M311.298,427.071c0,0-12.113-34.068-21.956-21.955c-9.842,12.113,6.814,21.955,6.814,21.955
			s-13.793,4.542-9.925,15.899C290.1,454.326,314.853,435.558,311.298,427.071z"/>
		<path fill="#F47D67" d="M387.762,439.941c0,0,12.871,21.199,0,26.877C374.892,472.496,380.948,439.941,387.762,439.941z"/>
		<path fill="#F47D67" d="M366.525,346.82c0,0,5.083-16.908-7.03-14.89c-3.785,0.757-1.765,5.3-1.765,5.3s-3.375-2.239-6.058,2.061
			c-3.389,5.434,4.292,10.052,6.058,9.8C359.495,348.839,366.525,346.82,366.525,346.82z"/>
		<path fill="#FFFFFF" d="M397.901,365.873c2.822,4.03,6.585,6.278,8.403,5.004c1.812-1.274,0.992-5.576-1.833-9.604
			c-2.822-4.038-6.584-6.276-8.401-5.004C394.258,357.54,395.078,361.84,397.901,365.873z"/>
		<path fill="#FFFFFF" d="M420.869,379.576c0,0-5.484,21.941-17.555,9.872c-3.017-3.29,0.551,6.857,7.132,6.583
			c6.583-0.274,10.697-10.287,10.971-12.207C421.692,381.904,422.318,375.309,420.869,379.576z"/>
	</g>
</g>
</svg>
