<?xml version="1.0" encoding="utf-8"?>
<!-- Generator: Adobe Illustrator 18.1.0, SVG Export Plug-In . SVG Version: 6.00 Build 0)  -->
<svg version="1.1" id="Layer_1" xmlns="http://www.w3.org/2000/svg" xmlns:xlink="http://www.w3.org/1999/xlink" x="0px" y="0px"
	 viewBox="0 0 706 529.8" enable-background="new 0 0 706 529.8" xml:space="preserve">
<g id="B_x26_W" display="none">
	<g display="inline">
		<path d="M600.6,98.7l-0.3-0.2c-0.8-0.7-2-1.6-2.5-2c-0.4-0.5-1.4-1.7-2.2-2.7c-5.1-6.3-13.7-16.9-30.2-25.6l-1.9-0.9
			c-4.9-2.3-18.1-7.7-33.8-7.7c-5.1,0-10,0.6-14.8,1.7c-15.3-13.7-34.5-21.6-55.7-22.9c-2-0.1-4-0.2-5.9-0.2
			c-10.7,0-21.1,1.8-30.9,5.4c-18.6-20.4-42.8-31.1-70.5-31.1c-13.4,0-32.9,2.8-52,15.6c-10.9-8-22.4-9.8-30.6-9.8
			c-2.2,0-4.4,0.1-6.6,0.4c-26.8,2.4-46.1,11.5-57.7,26.9c-9.2-2.4-19-3.6-29.2-3.6c-7.5,0-15.4,0.6-23.5,1.9
			c-14.8,2.3-28.9,6.7-42,13.1c-18.4,8.6-35.5,22.7-40.9,40.8l-0.3,1c-13.2,39.6-16.1,83.6-8.7,130.7
			c10.9,69.8,38.6,108.3,47.6,120.9l1.2,1.7c4.5,6.6,22.8,26.5,65.3,28.7c3.9,0.2,7.7,0.3,11.3,0.3c7.1,0,13.6-0.4,19.1-1.3
			c15.1-2.3,28-5.9,39.3-10.8c7.8,5.7,16.7,9.5,26.3,11.1l2.6,0.5l3.7,0.2c3.5,0.1,6.9,0.2,10,0.2c6,0,11-0.2,15.2-0.7
			c21.6-2.5,40.5-11.4,54.7-25.7c7.1-7.1,12.3-14.4,15.9-22.2c9.3-2.1,18.2-5.5,26.4-10.3c12.4,7.5,26.8,12,41.9,12.9
			c2,0.1,4,0.2,5.9,0.2c11,0,27.4-2,44.3-11.5c1.3,0.3,2.7,0.6,4,0.9c1.2,0.2,2.1,0.4,2.5,0.5c3.5,0.9,6.5,1.3,10,1.5
			c0.5,0,1,0.1,1.6,0.1c-2.2,5.2-5.5,9.7-9.1,12c-9.7,6.3-21.7-0.2-15.3,9c6.6,9.6,33.4,12.7,51.3,3.5c19.4-10,28.8-28.8,33-41
			c0.8-1,1.6-2,2.3-3c4.3-6.2,8-21.4,11.8-38c26.7-2.8,43.8-7.8,56.2-18.9c11.8-10.6,19.7-27.4,23-45.7
			C672.3,149.5,618.5,112.6,600.6,98.7z"/>
		<g>
			<path fill="#FFFFFF" d="M226,334.8c-9.5,11.3-26.9,18.9-52,22.8c-5.2,0.8-13.2,1.2-23.7,0.6c-15-0.8-24.4-3.8-28.6-9.8
				C117,341,84,303.5,72.3,228.1c-11.7-75.4,8.3-121,10.6-129c1.8-6.1,6.2-10.8,13.5-14.2c10.5-5.2,21.6-8.7,33.5-10.6
				c32.2-5,55.4,2.1,69.8,21.7c8.9,12,15.2,30.7,19.1,55.5c3.5,22.7,1.5,41.3-6,55.8c13.7,14.4,22.5,33.5,26.2,57.5
				C243.8,295.9,239.5,318.9,226,334.8z M125.8,127c-4.4,4.6-5.6,13.1-3.6,25.5c2,13,5.5,21.3,10.8,24.4c3.2,2.3,9.2,2.4,17.9,1.1
				c16.4-2.5,22.9-13.6,19.9-33.1c-3-19-12.4-26.9-28.5-24.4C133.9,121.9,128.5,123.8,125.8,127z M156.7,305.4
				c3.4,1.7,9.8,1.8,19.4,0.3c15.2-2.4,20.9-14.4,17.6-35.5c-2.9-18.4-12.1-27-27.8-26.2c-9.1,0.8-15.1,2.9-18.3,6.7
				c-4.5,5.7-5.5,15.3-3.3,29.9C146.4,294.2,150.5,302.5,156.7,305.4z"/>
			<path fill="#FFFFFF" d="M405,267.7c-13.1,23.3-30.9,35.2-53,35.2c-22.1,0-39.4-11.5-52.2-34.8c-12.5-23.3-18.8-55.8-18.8-97.7
				c0-41.9,6.3-74.8,18.8-98.1c12.5-23.3,29.8-35.2,52.2-35.2c36.5,0,59.7,29.7,69.5,88.6c2.3,14.2,3.5,29.3,3.5,44.7
				C425,211.9,418.3,244.4,405,267.7z M373.6,191.6c1-18.2-0.3-35.1-3.2-51.1c-4.2-23-11.9-35.1-22.5-35.5
				c-11.5-0.4-18,13.9-19.2,43.3c-1.6,39.4,3.5,66.7,16,81.9c3.8,4.8,8,6.5,12.5,5.2C367.1,232.3,372.6,217.6,373.6,191.6z"/>
			<path fill="#FFFFFF" d="M504.9,274.9c-13,20-29.4,29.6-49,28.4c-19.7-1.2-34.4-12.3-44.5-33.8c-9.9-21.4-13.7-50.6-11.4-87.9
				c2.3-37.3,9.6-66.2,22-86.2c12.4-20.1,28.4-29.7,48.3-28.5c32.5,2,51.5,29.6,57,82.6c1.3,12.8,1.6,26.2,0.7,39.9
				C525.8,226.4,518.1,254.9,504.9,274.9z M487.4,203.9c1.8-14.7,1.5-28.5-0.4-41.7c-2.7-18.9-9.2-29.2-19-30.1
				c-10.6-1-17.3,10.2-19.9,34.1c-3.4,31.9-0.1,54.4,10.7,67.4c3.3,4.1,7.1,5.7,11.3,4.9C479.5,236.6,485.2,225,487.4,203.9z"/>
			<path fill="#FFFFFF" d="M565.6,94.6c15.7,8.4,18.2,18.2,28.7,27.6c10.5,9.4,60.3,41.5,53.2,81.2c-2.3,12.9-6,22.7-11.2,29.4
				c-8.4,11-22.8,16.3-43.2,16.1l-10.1,0c-3.1,0-5.6,0.2-7,0.2c-3.2,0.3-5.5,1.1-6.6,2c-2.5,2.2-4.1,5.7-5,10.4
				c-0.8,4.8-1.9,10.4-2.8,16.9c-1.5,9.6-3.7,16.5-6.5,20.6c-4.9,7.5-15.1,10.7-30.2,9.4c-2.1-0.1-0.1,0-8-1.6
				c-8-1.6-9.5-3.8-12.7-8.9c-3.2-5.1,9.8-35.8,18-82.2c8-44.7,9-115.2,14.6-120.8C546.4,85.4,565.6,94.6,565.6,94.6z M603.4,180.1
				l-3.7-0.9c-6.2-1.7-10.9-1.9-14.2-0.8c-4.8,1.5-7.5,5.6-8.4,12.1c-1.5,11.1,3.6,17.5,15.2,18.7c11.1,1.1,17.3-3,19-12.6
				C612.9,187.3,610.3,181.9,603.4,180.1z"/>
			<g>
				<path fill="#FFFFFF" d="M329.1,298.1c1.8,6.7,1.2,12.2,1.2,18.8c0,1.8-0.5,6.1-2.8,12.7c-1.3,4.4-4.2,8.4-8.4,12.6
					c-7.6,7.8-17.9,12.7-31,14.2c-3.6,0.4-10.4,0.7-20.8,0.3c-7.3-1.3-13.3-6.9-18.1-17.5c-4.2-9.6-10.1-32.6-19.3-124.3
					c-3.7-36.1-7-70.2-9.8-102.2c-2.4-28.3-0.9-47.6,4.9-57.8c3.1-5.7,13.2-9.5,30.3-10.9c5-1.1,9.1,4.8,12.4,17.1
					c2.3,8.7,4.3,22.3,6.4,40.6c2.7,26.2,7,69.1,12.9,128.3l2,19.9c0.5,5.2,2.1,17.2,4.6,36c1.8,5.6,5.4,7.9,10.7,6.7
					c1.3-0.1,3.7-1,7.2-2.4c2.9-1.4,6.9-2.3,8.6-1.2C323,290.7,327,289.3,329.1,298.1z"/>
			</g>
		</g>
	</g>
	<g display="inline">
		<path d="M455.1,358.3c-8.2-10-38.6-30.4-69.7-6.9c-31,23.5-22.7,56-31,65.1c-8.3,9.1-13.6,18.1-8.3,20c5.3,1.9,60,36.8,102.2,0
			C473.7,414.3,476,383.9,455.1,358.3z"/>
		<path d="M351.3,427.1c0,0-12.1-34.1-22-22c-9.8,12.1,6.8,22,6.8,22s-13.8,4.5-9.9,15.9C330.1,454.3,354.9,435.6,351.3,427.1z"/>
		<path d="M427.8,439.9c0,0,12.9,21.2,0,26.9C414.9,472.5,421,439.9,427.8,439.9z"/>
		<path d="M406.6,346.8c0,0,5.1-16.9-7-14.9c-3.8,0.8-1.8,5.3-1.8,5.3s-3.4-2.2-6.1,2.1c-3.4,5.4,4.3,10.1,6.1,9.8
			C399.5,348.8,406.6,346.8,406.6,346.8z"/>
		<path fill="#FFFFFF" d="M437.9,365.9c2.8,4,6.6,6.3,8.4,5c1.8-1.3,1-5.6-1.8-9.6c-2.8-4-6.6-6.3-8.4-5
			C434.3,357.5,435.1,361.8,437.9,365.9z"/>
		<path fill="#FFFFFF" d="M460.9,379.6c0,0-5.5,21.9-17.6,9.9c-3-3.3,0.6,6.9,7.1,6.6c6.6-0.3,10.7-10.3,11-12.2
			C461.7,381.9,462.4,375.3,460.9,379.6z"/>
	</g>
</g>
<g id="Mono__x28_Blue_x29_" display="none">
	<g display="inline">
		<path fill="#85CBF1" d="M600.6,98.7l-0.3-0.2c-0.8-0.7-2-1.6-2.5-2c-0.4-0.5-1.4-1.7-2.2-2.7c-5.1-6.3-13.7-16.9-30.2-25.6
			l-1.9-0.9c-4.9-2.3-18.1-7.7-33.8-7.7c-5.1,0-10,0.6-14.8,1.7c-15.3-13.7-34.5-21.6-55.7-22.9c-2-0.1-4-0.2-5.9-0.2
			c-10.7,0-21.1,1.8-30.9,5.4c-18.6-20.4-42.8-31.1-70.5-31.1c-13.4,0-32.9,2.8-52,15.6c-10.9-8-22.4-9.8-30.6-9.8
			c-2.2,0-4.4,0.1-6.6,0.4c-26.8,2.4-46.1,11.5-57.7,26.9c-9.2-2.4-19-3.6-29.2-3.6c-7.5,0-15.4,0.6-23.5,1.9
			c-14.8,2.3-28.9,6.7-42,13.1c-18.4,8.6-35.5,22.7-40.9,40.8l-0.3,1c-13.2,39.6-16.1,83.6-8.7,130.7
			c10.9,69.8,38.6,108.3,47.6,120.9l1.2,1.7c4.5,6.6,22.8,26.5,65.3,28.7c3.9,0.2,7.7,0.3,11.3,0.3c7.1,0,13.6-0.4,19.1-1.3
			c15.1-2.3,28-5.9,39.3-10.8c7.8,5.7,16.7,9.5,26.3,11.1l2.6,0.5l3.7,0.2c3.5,0.1,6.9,0.2,10,0.2c6,0,11-0.2,15.2-0.7
			c21.6-2.5,40.5-11.4,54.7-25.7c7.1-7.1,12.3-14.4,15.9-22.2c9.3-2.1,18.2-5.5,26.4-10.3c12.4,7.5,26.8,12,41.9,12.9
			c2,0.1,4,0.2,5.9,0.2c11,0,27.4-2,44.3-11.5c1.3,0.3,2.7,0.6,4,0.9c1.2,0.2,2.1,0.4,2.5,0.5c3.5,0.9,6.5,1.3,10,1.5
			c0.5,0,1,0.1,1.6,0.1c-2.2,5.2-5.5,9.7-9.1,12c-9.7,6.3-21.7-0.2-15.3,9c6.6,9.6,33.4,12.7,51.3,3.5c19.4-10,28.8-28.8,33-41
			c0.8-1,1.6-2,2.3-3c4.3-6.2,8-21.4,11.8-38c26.7-2.8,43.8-7.8,56.2-18.9c11.8-10.6,19.7-27.4,23-45.7
			C672.3,149.5,618.5,112.6,600.6,98.7z"/>
		<g>
			<path fill="#F5FBFE" d="M226,334.8c-9.5,11.3-26.9,18.9-52,22.8c-5.2,0.8-13.2,1.2-23.7,0.6c-15-0.8-24.4-3.8-28.6-9.8
				C117,341,84,303.5,72.3,228.1c-11.7-75.4,8.2-121,10.6-129c1.8-6.1,6.2-10.8,13.5-14.2c10.5-5.2,21.6-8.7,33.5-10.6
				c32.2-5,55.4,2.1,69.8,21.7c8.9,12,15.2,30.7,19.1,55.5c3.5,22.7,1.5,41.3-6,55.8c13.7,14.4,22.5,33.5,26.2,57.5
				C243.8,295.9,239.5,318.9,226,334.8z M125.8,127c-4.4,4.6-5.6,13.1-3.6,25.5c2,13,5.5,21.3,10.8,24.4c3.2,2.3,9.2,2.4,17.9,1.1
				c16.4-2.5,22.9-13.6,19.9-33.1c-3-19-12.4-26.9-28.5-24.4C133.9,121.9,128.5,123.8,125.8,127z M156.7,305.4
				c3.4,1.7,9.8,1.8,19.4,0.3c15.2-2.4,20.9-14.4,17.6-35.5c-2.9-18.4-12.1-27-27.8-26.2c-9.1,0.8-15.1,2.9-18.3,6.7
				c-4.5,5.7-5.5,15.3-3.3,29.9C146.4,294.2,150.5,302.5,156.7,305.4z"/>
			<path fill="#F5FBFE" d="M405,267.7c-13.1,23.3-30.9,35.2-53,35.2c-22.1,0-39.4-11.5-52.2-34.8c-12.5-23.3-18.8-55.8-18.8-97.7
				c0-41.9,6.3-74.8,18.8-98.1c12.5-23.3,29.8-35.2,52.2-35.2c36.5,0,59.7,29.7,69.5,88.6c2.3,14.2,3.5,29.3,3.5,44.7
				C425,211.9,418.3,244.4,405,267.7z M373.6,191.6c1-18.2-0.3-35.1-3.2-51.1c-4.2-23-11.9-35.1-22.5-35.5
				c-11.5-0.4-18,13.9-19.2,43.3c-1.6,39.4,3.5,66.7,16,81.9c3.8,4.8,8,6.5,12.5,5.2C367.1,232.3,372.6,217.6,373.6,191.6z"/>
			<path fill="#F5FBFE" d="M504.9,274.9c-13,20-29.4,29.6-49,28.4c-19.7-1.2-34.4-12.3-44.5-33.8c-9.9-21.4-13.7-50.6-11.4-87.9
				c2.3-37.3,9.6-66.2,22-86.2c12.4-20.1,28.4-29.7,48.3-28.5c32.5,2,51.5,29.6,57,82.6c1.3,12.8,1.6,26.2,0.7,39.9
				C525.8,226.4,518.1,254.9,504.9,274.9z M487.4,203.9c1.8-14.7,1.5-28.5-0.4-41.7c-2.7-18.9-9.2-29.2-19-30.1
				c-10.6-1-17.3,10.2-19.9,34.1c-3.4,31.9-0.1,54.4,10.7,67.4c3.3,4.1,7.1,5.7,11.3,4.9C479.5,236.6,485.2,225,487.4,203.9z"/>
			<path fill="#F5FBFE" d="M565.6,94.6c15.7,8.4,18.2,18.2,28.7,27.6c10.5,9.4,60.3,41.5,53.2,81.2c-2.3,12.9-6,22.7-11.2,29.4
				c-8.4,11-22.8,16.3-43.2,16.1l-10.1,0c-3.1,0-5.6,0.2-7,0.2c-3.2,0.3-5.5,1.1-6.6,2c-2.5,2.2-4.1,5.7-5,10.4
				c-0.8,4.8-1.9,10.4-2.8,16.9c-1.5,9.6-3.7,16.5-6.5,20.6c-4.9,7.5-15.1,10.7-30.2,9.4c-2.1-0.1-0.1,0-8-1.6
				c-8-1.6-9.5-3.8-12.7-8.9c-3.2-5.1,9.8-35.8,18-82.2c8-44.7,9-115.2,14.6-120.8C546.4,85.4,565.6,94.6,565.6,94.6z M603.4,180.1
				l-3.7-0.9c-6.2-1.7-10.9-1.9-14.2-0.8c-4.8,1.5-7.5,5.6-8.4,12.1c-1.5,11.1,3.6,17.5,15.2,18.7c11.1,1.1,17.3-3,19-12.6
				C612.9,187.3,610.3,181.9,603.4,180.1z"/>
			<g>
				<path fill="#F5FBFE" d="M329.1,298.1c1.8,6.7,1.2,12.2,1.2,18.8c0,1.8-0.5,6.1-2.8,12.7c-1.3,4.4-4.2,8.4-8.4,12.6
					c-7.6,7.8-17.9,12.7-31,14.2c-3.6,0.4-10.4,0.7-20.8,0.3c-7.3-1.3-13.3-6.9-18.1-17.5c-4.2-9.6-10.1-32.6-19.3-124.3
					c-3.7-36.1-7-70.2-9.8-102.2c-2.4-28.3-0.9-47.6,4.9-57.8c3.1-5.7,13.2-9.5,30.3-10.9c5-1.1,9.1,4.8,12.4,17.1
					c2.3,8.7,4.3,22.3,6.4,40.6c2.7,26.2,7,69.1,12.9,128.3l2,19.9c0.5,5.2,2.1,17.2,4.6,36c1.8,5.6,5.4,7.9,10.7,6.7
					c1.3-0.1,3.7-1,7.2-2.4c2.9-1.4,6.9-2.3,8.6-1.2C323,290.7,327,289.3,329.1,298.1z"/>
			</g>
		</g>
	</g>
	<g display="inline">
		<path fill="#85CBF1" d="M455.1,358.3c-8.2-10-38.6-30.4-69.7-6.9c-31,23.5-22.7,56-31,65.1c-8.3,9.1-13.6,18.1-8.3,20
			c5.3,1.9,60,36.8,102.2,0C473.7,414.3,476,383.9,455.1,358.3z"/>
		<path fill="#85CBF1" d="M351.3,427.1c0,0-12.1-34.1-22-22c-9.8,12.1,6.8,22,6.8,22s-13.8,4.5-9.9,15.9
			C330.1,454.3,354.9,435.6,351.3,427.1z"/>
		<path fill="#85CBF1" d="M427.8,439.9c0,0,12.9,21.2,0,26.9C414.9,472.5,421,439.9,427.8,439.9z"/>
		<path fill="#85CBF1" d="M406.6,346.8c0,0,5.1-16.9-7-14.9c-3.8,0.8-1.8,5.3-1.8,5.3s-3.4-2.2-6.1,2.1c-3.4,5.4,4.3,10.1,6.1,9.8
			C399.5,348.8,406.6,346.8,406.6,346.8z"/>
		<path fill="#FFFFFF" d="M437.9,365.9c2.8,4,6.6,6.3,8.4,5c1.8-1.3,1-5.6-1.8-9.6c-2.8-4-6.6-6.3-8.4-5
			C434.3,357.5,435.1,361.8,437.9,365.9z"/>
		<path fill="#FFFFFF" d="M460.9,379.6c0,0-5.5,21.9-17.6,9.9c-3-3.3,0.6,6.9,7.1,6.6c6.6-0.3,10.7-10.3,11-12.2
			C461.7,381.9,462.4,375.3,460.9,379.6z"/>
	</g>
</g>
<g id="Mono__x28_Orange_x29_" display="none">
	<g display="inline">
		<path fill="#F47D67" d="M600.6,98.7l-0.3-0.2c-0.8-0.7-2-1.6-2.5-2c-0.4-0.5-1.4-1.7-2.2-2.7c-5.1-6.3-13.7-16.9-30.2-25.6
			l-1.9-0.9c-4.9-2.3-18.1-7.7-33.8-7.7c-5.1,0-10,0.6-14.8,1.7c-15.3-13.7-34.5-21.6-55.7-22.9c-2-0.1-4-0.2-5.9-0.2
			c-10.7,0-21.1,1.8-30.9,5.4c-18.6-20.4-42.8-31.1-70.5-31.1c-13.4,0-32.9,2.8-52,15.6c-10.9-8-22.4-9.8-30.6-9.8
			c-2.2,0-4.4,0.1-6.6,0.4c-26.8,2.4-46.1,11.5-57.7,26.9c-9.2-2.4-19-3.6-29.2-3.6c-7.5,0-15.4,0.6-23.5,1.9
			c-14.8,2.3-28.9,6.7-42,13.1c-18.4,8.6-35.5,22.7-40.9,40.8l-0.3,1c-13.2,39.6-16.1,83.6-8.7,130.7
			c10.9,69.8,38.6,108.3,47.6,120.9l1.2,1.7c4.5,6.6,22.8,26.5,65.3,28.7c3.9,0.2,7.7,0.3,11.3,0.3c7.1,0,13.6-0.4,19.1-1.3
			c15.1-2.3,28-5.9,39.3-10.8c7.8,5.7,16.7,9.5,26.3,11.1l2.6,0.5l3.7,0.2c3.5,0.1,6.9,0.2,10,0.2c6,0,11-0.2,15.2-0.7
			c21.6-2.5,40.5-11.4,54.7-25.7c7.1-7.1,12.3-14.4,15.9-22.2c9.3-2.1,18.2-5.5,26.4-10.3c12.4,7.5,26.8,12,41.9,12.9
			c2,0.1,4,0.2,5.9,0.2c11,0,27.4-2,44.3-11.5c1.3,0.3,2.7,0.6,4,0.9c1.2,0.2,2.1,0.4,2.5,0.5c3.5,0.9,6.5,1.3,10,1.5
			c0.5,0,1,0.1,1.6,0.1c-2.2,5.2-5.5,9.7-9.1,12c-9.7,6.3-21.7-0.2-15.3,9c6.6,9.6,33.4,12.7,51.3,3.5c19.4-10,28.8-28.8,33-41
			c0.8-1,1.6-2,2.3-3c4.3-6.2,8-21.4,11.8-38c26.7-2.8,43.8-7.8,56.2-18.9c11.8-10.6,19.7-27.4,23-45.7
			C672.3,149.5,618.5,112.6,600.6,98.7z"/>
		<g>
			<path fill="#F5FBFE" d="M226,334.8c-9.5,11.3-26.9,18.9-52,22.8c-5.2,0.8-13.2,1.2-23.7,0.6c-15-0.8-24.4-3.8-28.6-9.8
				C117,341,84,303.5,72.3,228.1c-11.7-75.4,8.3-121,10.6-129c1.8-6.1,6.2-10.8,13.5-14.2c10.5-5.2,21.6-8.7,33.5-10.6
				c32.2-5,55.4,2.1,69.8,21.7c8.9,12,15.2,30.7,19.1,55.5c3.5,22.7,1.5,41.3-6,55.8c13.7,14.4,22.5,33.5,26.2,57.5
				C243.8,295.9,239.5,318.9,226,334.8z M125.8,127c-4.4,4.6-5.6,13.1-3.6,25.5c2,13,5.5,21.3,10.8,24.4c3.2,2.3,9.2,2.4,17.9,1.1
				c16.4-2.5,22.9-13.6,19.9-33.1c-3-19-12.4-26.9-28.5-24.4C133.9,121.9,128.5,123.8,125.8,127z M156.7,305.4
				c3.4,1.7,9.8,1.8,19.4,0.3c15.2-2.4,20.9-14.4,17.6-35.5c-2.9-18.4-12.1-27-27.8-26.2c-9.1,0.8-15.1,2.9-18.3,6.7
				c-4.5,5.7-5.5,15.3-3.3,29.9C146.4,294.2,150.5,302.5,156.7,305.4z"/>
			<path fill="#F5FBFE" d="M405,267.7c-13.1,23.3-30.9,35.2-53,35.2c-22.1,0-39.4-11.5-52.2-34.8c-12.5-23.3-18.8-55.8-18.8-97.7
				c0-41.9,6.3-74.8,18.8-98.1c12.5-23.3,29.8-35.2,52.2-35.2c36.5,0,59.7,29.7,69.5,88.6c2.3,14.2,3.5,29.3,3.5,44.7
				C425,211.9,418.3,244.4,405,267.7z M373.6,191.6c1-18.2-0.3-35.1-3.2-51.1c-4.2-23-11.9-35.1-22.5-35.5
				c-11.5-0.4-18,13.9-19.2,43.3c-1.6,39.4,3.5,66.7,16,81.9c3.8,4.8,8,6.5,12.5,5.2C367.1,232.3,372.6,217.6,373.6,191.6z"/>
			<path fill="#F5FBFE" d="M504.9,274.9c-13,20-29.4,29.6-49,28.4c-19.7-1.2-34.4-12.3-44.5-33.8c-9.9-21.4-13.7-50.6-11.4-87.9
				c2.3-37.3,9.6-66.2,22-86.2c12.4-20.1,28.4-29.7,48.3-28.5c32.5,2,51.5,29.6,57,82.6c1.3,12.8,1.6,26.2,0.7,39.9
				C525.8,226.4,518.1,254.9,504.9,274.9z M487.4,203.9c1.8-14.7,1.5-28.5-0.4-41.7c-2.7-18.9-9.2-29.2-19-30.1
				c-10.6-1-17.3,10.2-19.9,34.1c-3.4,31.9-0.1,54.4,10.7,67.4c3.3,4.1,7.1,5.7,11.3,4.9C479.5,236.6,485.2,225,487.4,203.9z"/>
			<path fill="#F5FBFE" d="M565.6,94.6c15.7,8.4,18.2,18.2,28.7,27.6c10.5,9.4,60.3,41.5,53.2,81.2c-2.3,12.9-6,22.7-11.2,29.4
				c-8.4,11-22.8,16.3-43.2,16.1l-10.1,0c-3.1,0-5.6,0.2-7,0.2c-3.2,0.3-5.5,1.1-6.6,2c-2.5,2.2-4.1,5.7-5,10.4
				c-0.8,4.8-1.9,10.4-2.8,16.9c-1.5,9.6-3.7,16.5-6.5,20.6c-4.9,7.5-15.1,10.7-30.2,9.4c-2.1-0.1-0.1,0-8-1.6
				c-8-1.6-9.5-3.8-12.7-8.9c-3.2-5.1,9.8-35.8,18-82.2c8-44.7,9-115.2,14.6-120.8C546.4,85.4,565.6,94.6,565.6,94.6z M603.4,180.1
				l-3.7-0.9c-6.2-1.7-10.9-1.9-14.2-0.8c-4.8,1.5-7.5,5.6-8.4,12.1c-1.5,11.1,3.6,17.5,15.2,18.7c11.1,1.1,17.3-3,19-12.6
				C612.9,187.3,610.3,181.9,603.4,180.1z"/>
			<g>
				<path fill="#F5FBFE" d="M329.1,298.1c1.8,6.7,1.2,12.2,1.2,18.8c0,1.8-0.5,6.1-2.8,12.7c-1.3,4.4-4.2,8.4-8.4,12.6
					c-7.6,7.8-17.9,12.7-31,14.2c-3.6,0.4-10.4,0.7-20.8,0.3c-7.3-1.3-13.3-6.9-18.1-17.5c-4.2-9.6-10.1-32.6-19.3-124.3
					c-3.7-36.1-7-70.2-9.8-102.2c-2.4-28.3-0.9-47.6,4.9-57.8c3.1-5.7,13.2-9.5,30.3-10.9c5-1.1,9.1,4.8,12.4,17.1
					c2.3,8.7,4.3,22.3,6.4,40.6c2.7,26.2,7,69.1,12.9,128.3l2,19.9c0.5,5.2,2.1,17.2,4.6,36c1.8,5.6,5.4,7.9,10.7,6.7
					c1.3-0.1,3.7-1,7.2-2.4c2.9-1.4,6.9-2.3,8.6-1.2C323,290.7,327,289.3,329.1,298.1z"/>
			</g>
		</g>
	</g>
	<g display="inline">
		<path fill="#F47D67" d="M455.1,358.3c-8.2-10-38.6-30.4-69.7-6.9c-31,23.5-22.7,56-31,65.1c-8.3,9.1-13.6,18.1-8.3,20
			c5.3,1.9,60,36.8,102.2,0C473.7,414.3,476,383.9,455.1,358.3z"/>
		<path fill="#F47D67" d="M351.3,427.1c0,0-12.1-34.1-22-22c-9.8,12.1,6.8,22,6.8,22s-13.8,4.5-9.9,15.9
			C330.1,454.3,354.9,435.6,351.3,427.1z"/>
		<path fill="#F47D67" d="M427.8,439.9c0,0,12.9,21.2,0,26.9C414.9,472.5,421,439.9,427.8,439.9z"/>
		<path fill="#F47D67" d="M406.6,346.8c0,0,5.1-16.9-7-14.9c-3.8,0.8-1.8,5.3-1.8,5.3s-3.4-2.2-6.1,2.1c-3.4,5.4,4.3,10.1,6.1,9.8
			C399.5,348.8,406.6,346.8,406.6,346.8z"/>
		<path fill="#FFFFFF" d="M437.9,365.9c2.8,4,6.6,6.3,8.4,5c1.8-1.3,1-5.6-1.8-9.6c-2.8-4-6.6-6.3-8.4-5
			C434.3,357.5,435.1,361.8,437.9,365.9z"/>
		<path fill="#FFFFFF" d="M460.9,379.6c0,0-5.5,21.9-17.6,9.9c-3-3.3,0.6,6.9,7.1,6.6c6.6-0.3,10.7-10.3,11-12.2
			C461.7,381.9,462.4,375.3,460.9,379.6z"/>
	</g>
</g>
<circle fill="#FFFFFF" cx="353" cy="176.8" r="353"/>
<g id="Full_Color">
	<g>
		<path fill="#85CBF1" d="M600.6,98.7l-0.3-0.2c-0.8-0.7-2-1.6-2.5-2c-0.4-0.5-1.4-1.7-2.2-2.7c-5.1-6.3-13.7-16.9-30.2-25.6
			l-1.9-0.9c-4.9-2.3-18.1-7.7-33.8-7.7c-5.1,0-10,0.6-14.8,1.7c-15.3-13.7-34.5-21.6-55.7-22.9c-2-0.1-4-0.2-5.9-0.2
			c-10.7,0-21.1,1.8-30.9,5.4c-18.6-20.4-42.8-31.1-70.5-31.1c-13.4,0-32.9,2.8-52,15.6c-10.9-8-22.4-9.8-30.6-9.8
			c-2.2,0-4.4,0.1-6.6,0.4c-26.8,2.4-46.1,11.5-57.7,26.9c-9.2-2.4-19-3.6-29.2-3.6c-7.5,0-15.4,0.6-23.5,1.9
			c-14.8,2.3-28.9,6.7-42,13.1c-18.4,8.6-35.5,22.7-40.9,40.8l-0.3,1c-13.2,39.6-16.1,83.6-8.7,130.7
			c10.9,69.8,38.6,108.3,47.6,120.9l1.2,1.7c4.5,6.6,22.8,26.5,65.3,28.7c3.9,0.2,7.7,0.3,11.3,0.3c7.1,0,13.6-0.4,19.1-1.3
			c15.1-2.3,28-5.9,39.3-10.8c7.8,5.7,16.7,9.5,26.3,11.1l2.6,0.5l3.7,0.2c3.5,0.1,6.9,0.2,10,0.2c6,0,11-0.2,15.2-0.7
			c21.6-2.5,40.5-11.4,54.7-25.7c7.1-7.1,12.3-14.4,15.9-22.2c9.3-2.1,18.2-5.5,26.4-10.3c12.4,7.5,26.8,12,41.9,12.9
			c2,0.1,4,0.2,5.9,0.2c11,0,27.4-2,44.3-11.5c1.3,0.3,2.7,0.6,4,0.9c1.2,0.2,2.1,0.4,2.5,0.5c3.5,0.9,6.5,1.3,10,1.5
			c0.5,0,1,0.1,1.6,0.1c-2.2,5.2-5.5,9.7-9.1,12c-9.7,6.3-21.7-0.2-15.3,9c6.6,9.6,33.4,12.7,51.3,3.5c19.4-10,28.8-28.8,33-41
			c0.8-1,1.6-2,2.3-3c4.3-6.2,8-21.4,11.8-38c26.7-2.8,43.8-7.8,56.2-18.9c11.8-10.6,19.7-27.4,23-45.7
			C672.3,149.5,618.5,112.6,600.6,98.7z"/>
		<g>
			<path fill="#F5FBFE" d="M226,334.8c-9.5,11.3-26.9,18.9-52,22.8c-5.2,0.8-13.2,1.2-23.7,0.6c-15-0.8-24.4-3.8-28.6-9.8
				C117,341,84,303.5,72.3,228.1c-11.7-75.4,8.3-121,10.6-129c1.8-6.1,6.2-10.8,13.5-14.2c10.5-5.2,21.6-8.7,33.5-10.6
				c32.2-5,55.4,2.1,69.8,21.7c8.9,12,15.2,30.7,19.1,55.5c3.5,22.7,1.5,41.3-6,55.8c13.7,14.4,22.5,33.5,26.2,57.5
				C243.8,295.9,239.5,318.9,226,334.8z M125.8,127c-4.4,4.6-5.6,13.1-3.6,25.5c2,13,5.5,21.3,10.8,24.4c3.2,2.3,9.2,2.4,17.9,1.1
				c16.4-2.5,22.9-13.6,19.9-33.1c-3-19-12.4-26.9-28.5-24.4C133.9,121.9,128.5,123.8,125.8,127z M156.7,305.4
				c3.4,1.7,9.8,1.8,19.4,0.3c15.2-2.4,20.9-14.4,17.6-35.5c-2.9-18.4-12.1-27-27.8-26.2c-9.1,0.8-15.1,2.9-18.3,6.7
				c-4.5,5.7-5.5,15.3-3.3,29.9C146.4,294.2,150.6,302.5,156.7,305.4z"/>
			<path fill="#F5FBFE" d="M405,267.7c-13.1,23.3-30.9,35.2-53,35.2c-22.1,0-39.4-11.5-52.2-34.8c-12.5-23.3-18.8-55.8-18.8-97.7
				c0-41.9,6.3-74.8,18.8-98.1c12.5-23.3,29.8-35.2,52.2-35.2c36.5,0,59.7,29.7,69.5,88.6c2.3,14.2,3.5,29.3,3.5,44.7
				C425,211.9,418.3,244.4,405,267.7z M373.6,191.6c1-18.2-0.3-35.1-3.2-51.1c-4.2-23-11.9-35.1-22.5-35.5
				c-11.5-0.4-18,13.9-19.2,43.3c-1.6,39.4,3.5,66.7,16,81.9c3.8,4.8,8,6.5,12.5,5.2C367.1,232.3,372.6,217.6,373.6,191.6z"/>
			<path fill="#F5FBFE" d="M504.9,274.9c-13,20-29.4,29.6-49,28.4c-19.7-1.2-34.4-12.3-44.5-33.8c-9.9-21.4-13.7-50.6-11.4-87.9
				c2.3-37.3,9.6-66.2,22-86.2c12.4-20.1,28.4-29.7,48.3-28.5c32.5,2,51.5,29.6,57,82.6c1.3,12.8,1.6,26.2,0.7,39.9
				C525.8,226.4,518.1,254.9,504.9,274.9z M487.4,203.9c1.8-14.7,1.5-28.5-0.4-41.7c-2.7-18.9-9.2-29.2-19-30.1
				c-10.6-1-17.3,10.2-19.9,34.1c-3.4,31.9-0.1,54.4,10.7,67.4c3.3,4.1,7.1,5.7,11.3,4.9C479.5,236.6,485.2,225,487.4,203.9z"/>
			<path fill="#F5FBFE" d="M565.6,94.6c15.7,8.4,18.2,18.2,28.7,27.6c10.5,9.4,60.3,41.5,53.2,81.2c-2.3,12.9-6,22.7-11.2,29.4
				c-8.4,11-22.8,16.3-43.2,16.1l-10.1,0c-3.1,0-5.6,0.2-7,0.2c-3.2,0.3-5.5,1.1-6.6,2c-2.5,2.2-4.1,5.7-5,10.4
				c-0.8,4.8-1.9,10.4-2.8,16.9c-1.5,9.6-3.6,16.5-6.5,20.6c-4.9,7.5-15.1,10.7-30.2,9.4c-2.1-0.1-0.1,0-8-1.6
				c-8-1.6-9.5-3.8-12.7-8.9c-3.2-5.1,9.8-35.8,18-82.2c8-44.7,9-115.2,14.6-120.8C546.4,85.4,565.6,94.6,565.6,94.6z M603.4,180.1
				l-3.7-0.9c-6.2-1.7-10.9-1.9-14.2-0.8c-4.8,1.5-7.5,5.6-8.4,12.1c-1.5,11.1,3.6,17.5,15.2,18.7c11.1,1.1,17.3-3,19-12.6
				C612.9,187.3,610.3,181.9,603.4,180.1z"/>
			<g>
				<path fill="#F5FBFE" d="M329.1,298.1c1.8,6.7,1.2,12.2,1.2,18.8c0,1.8-0.5,6.1-2.8,12.7c-1.3,4.4-4.2,8.4-8.4,12.6
					c-7.6,7.8-17.9,12.7-31,14.2c-3.6,0.4-10.4,0.7-20.8,0.3c-7.3-1.3-13.3-6.9-18.1-17.5c-4.2-9.6-10.1-32.6-19.3-124.3
					c-3.7-36.1-7-70.2-9.8-102.2c-2.4-28.3-0.9-47.6,4.9-57.8c3.1-5.7,13.2-9.5,30.3-10.9c5-1.1,9.1,4.8,12.4,17.1
					c2.3,8.7,4.3,22.3,6.4,40.6c2.7,26.2,7,69.1,12.9,128.3l2,19.9c0.5,5.2,2.1,17.2,4.6,36c1.8,5.6,5.4,7.9,10.7,6.7
					c1.3-0.1,3.7-1,7.2-2.4c2.9-1.4,6.9-2.3,8.6-1.2C323,290.7,327,289.3,329.1,298.1z"/>
			</g>
		</g>
	</g>
	<g>
		<path fill="#F47D67" d="M455.1,358.3c-8.2-10-38.6-30.4-69.7-6.9c-31,23.5-22.7,56-31,65.1c-8.3,9.1-13.6,18.1-8.3,20
			c5.3,1.9,60,36.8,102.2,0C473.7,414.3,476,383.9,455.1,358.3z"/>
		<path fill="#F47D67" d="M351.3,427.1c0,0-12.1-34.1-22-22c-9.8,12.1,6.8,22,6.8,22s-13.8,4.5-9.9,15.9
			C330.1,454.3,354.9,435.6,351.3,427.1z"/>
		<path fill="#F47D67" d="M427.8,439.9c0,0,12.9,21.2,0,26.9C414.9,472.5,421,439.9,427.8,439.9z"/>
		<path fill="#F47D67" d="M406.6,346.8c0,0,5.1-16.9-7-14.9c-3.8,0.8-1.8,5.3-1.8,5.3s-3.4-2.2-6.1,2.1c-3.4,5.4,4.3,10.1,6.1,9.8
			C399.5,348.8,406.6,346.8,406.6,346.8z"/>
		<path fill="#FFFFFF" d="M437.9,365.9c2.8,4,6.6,6.3,8.4,5c1.8-1.3,1-5.6-1.8-9.6c-2.8-4-6.6-6.3-8.4-5
			C434.3,357.5,435.1,361.8,437.9,365.9z"/>
		<path fill="#FFFFFF" d="M460.9,379.6c0,0-5.5,21.9-17.6,9.9c-3-3.3,0.6,6.9,7.1,6.6c6.6-0.3,10.7-10.3,11-12.2
			C461.7,381.9,462.4,375.3,460.9,379.6z"/>
	</g>
</g>
</svg>
